HIERARCHY
ROOT Hips
{
	OFFSET 0.000000 0.000000 0.000000
	CHANNELS 6 Xposition Yposition Zposition Zrotation Yrotation Xrotation 
	JOINT LowerBack
	{
		OFFSET 0.000000 0.000000 0.000000
		CHANNELS 3 Zrotation Yrotation Xrotation
		JOINT Spine
		{
			OFFSET 0.028270 2.035590 -0.193380
			CHANNELS 3 Zrotation Yrotation Xrotation
			JOINT Spine1
			{
				OFFSET 0.056720 2.048850 -0.042750
				CHANNELS 3 Zrotation Yrotation Xrotation
				JOINT Neck
				{
					OFFSET 0.000000 0.000000 0.000000
					CHANNELS 3 Zrotation Yrotation Xrotation
					JOINT Neck1
					{
						OFFSET -0.054170 1.746240 0.172020
						CHANNELS 3 Zrotation Yrotation Xrotation
						JOINT Head
						{
							OFFSET 0.104070 1.761360 -0.123970
							CHANNELS 3 Zrotation Yrotation Xrotation
							End Site
							{
								OFFSET 0.000000 0.000000 0.000000
							}
						}
					}
				}
				JOINT LeftShoulder
				{
					OFFSET 0.000000 0.000000 0.000000
					CHANNELS 3 Zrotation Yrotation Xrotation
					JOINT LeftArm
					{
						OFFSET 3.362410 1.200890 -0.311210
						CHANNELS 3 Zrotation Yrotation Xrotation
						JOINT LeftForeArm
						{
							OFFSET 4.983000 -0.000000 -0.000000
							CHANNELS 3 Zrotation Yrotation Xrotation
							JOINT LeftHand
							{
								OFFSET 3.483560 -0.000000 -0.000000
								CHANNELS 3 Zrotation Yrotation Xrotation
								JOINT LeftFingerBase
								{
									OFFSET 0.000000 0.000000 0.000000
									CHANNELS 3 Zrotation Yrotation Xrotation
									JOINT LeftHandIndex1
									{
										OFFSET 0.715260 -0.000000 -0.000000
										CHANNELS 3 Zrotation Yrotation Xrotation
										End Site
										{
											OFFSET 0.000000 0.000000 0.000000
										}
									}
								}
								JOINT LThumb
								{
									OFFSET 0.000000 0.000000 0.000000
									CHANNELS 3 Zrotation Yrotation Xrotation
									End Site
									{
										OFFSET 0.000000 0.000000 0.000000
									}
								}
							}
						}
					}
				}
				JOINT RightShoulder
				{
					OFFSET 0.000000 0.000000 0.000000
					CHANNELS 3 Zrotation Yrotation Xrotation
					JOINT RightArm
					{
						OFFSET -3.136600 1.374050 -0.404650
						CHANNELS 3 Zrotation Yrotation Xrotation
						JOINT RightForeArm
						{
							OFFSET -5.241900 -0.000000 -0.000000
							CHANNELS 3 Zrotation Yrotation Xrotation
							JOINT RightHand
							{
								OFFSET -3.444170 -0.000000 -0.000000
								CHANNELS 3 Zrotation Yrotation Xrotation
								JOINT RightFingerBase
								{
									OFFSET 0.000000 0.000000 0.000000
									CHANNELS 3 Zrotation Yrotation Xrotation
									JOINT RightHandIndex1
									{
										OFFSET -0.622530 -0.000000 -0.000000
										CHANNELS 3 Zrotation Yrotation Xrotation
										End Site
										{
											OFFSET 0.000000 0.000000 0.000000
										}
									}
								}
								JOINT RThumb
								{
									OFFSET 0.000000 0.000000 0.000000
									CHANNELS 3 Zrotation Yrotation Xrotation
									End Site
									{
										OFFSET 0.000000 0.000000 0.000000
									}
								}
							}
						}
					}
				}
			}
		}
	}
}
}
MOTION
Frames: 6
Frame Time: 0.008333
-12.672203 17.751559 -0.997483 -126.895207 89.463968 -99.093603 3.761841 -3.636706 -3.081997 0.833472 -3.947361 -3.717902 -4.636651 -3.950642 -0.967129 7.000488 -14.829276 -7.770731 -2.764747 -0.212652 -0.034196 0.000000 0.000000 0.000000 6.364340 5.519602 -0.813952 -77.664938 -4.681923 26.824472 -178.508317 -66.546103 179.957778 5.596629 -6.400787 -0.361509 -0.223937 0.824490 -0.000000 0.000000 0.000000 0.000000 0.000000 0.000000 0.000000 4.312137 -10.792310 -0.762979 70.560082 -22.047999 25.968463 179.821397 74.097018 179.979853 -0.354592 11.591603 -0.026490 -0.095551 -0.543754 -0.000000 0.000000 0.000000 0.000000 0.000000 0.000000 0.000000 
-12.443808 17.805293 -0.990661 -128.262045 89.400650 -100.397543 4.014904 -3.610946 -3.169731 0.896961 -3.940616 -3.746334 -4.579856 -3.945982 -0.984938 6.861193 -14.820263 -7.764842 -2.746986 -0.211854 -0.030374 0.000000 0.000000 0.000000 6.498177 5.484273 -0.814158 -77.928194 -4.155655 27.149983 -178.510363 -66.171933 179.961417 5.154572 -6.269910 -0.326286 -0.205370 0.821717 -0.000000 0.000000 0.000000 0.000000 0.000000 0.000000 0.000000 4.018917 -10.727347 -0.776447 70.879212 -22.423066 25.645302 179.824917 73.772769 179.979564 -0.268340 11.628973 -0.016917 -0.100334 -0.546098 -0.000000 0.000000 0.000000 0.000000 0.000000 0.000000 0.000000 
-12.216726 17.847079 -0.981786 -133.028524 89.441220 -105.117624 4.147697 -3.587117 -3.243537 0.929646 -3.926941 -3.771078 -4.539270 -3.932860 -1.006430 6.755559 -14.794275 -7.760459 -2.737275 -0.211602 -0.027336 0.000000 0.000000 0.000000 6.623091 5.437753 -0.813724 -78.151319 -3.594793 27.472000 -178.525914 -65.834652 179.964122 4.807701 -6.172270 -0.299450 -0.189042 0.819070 -0.000000 0.000000 0.000000 0.000000 0.000000 0.000000 0.000000 3.803116 -10.644142 -0.784172 71.233928 -22.715802 25.307236 179.826017 73.507052 179.979413 -0.178018 11.674727 -0.006935 -0.104634 -0.548860 -0.000000 0.000000 0.000000 0.000000 0.000000 0.000000 0.000000 
-11.991671 17.877180 -0.971358 -140.436431 89.572994 -112.518300 4.179750 -3.557443 -3.277002 0.932293 -3.898932 -3.786804 -4.518202 -3.902956 -1.030295 6.686750 -14.750588 -7.758604 -2.735478 -0.211820 -0.025743 0.000000 0.000000 0.000000 6.731518 5.399116 -0.810453 -78.331962 -3.027876 27.796370 -178.552581 -65.552500 179.966027 4.543940 -6.098204 -0.279406 -0.174941 0.816198 -0.000000 0.000000 0.000000 0.000000 0.000000 0.000000 0.000000 3.668673 -10.539423 -0.786307 71.620671 -22.909019 24.955439 179.824672 73.305038 179.979401 -0.091015 11.714621 0.002755 -0.108237 -0.551784 -0.000000 0.000000 0.000000 0.000000 0.000000 0.000000 0.000000 
-11.768658 17.895711 -0.959621 -151.644963 89.811213 -123.766155 4.124219 -3.508834 -3.261213 0.902783 -3.843917 -3.791961 -4.516513 -3.842669 -1.055791 6.650917 -14.695392 -7.760246 -2.739508 -0.212321 -0.025878 0.000000 0.000000 0.000000 6.815514 5.377067 -0.806179 -78.466462 -2.452097 28.114374 -178.594288 -65.323342 179.966799 4.395241 -6.056729 -0.268141 -0.164100 0.813386 -0.000000 0.000000 0.000000 0.000000 0.000000 0.000000 0.000000 3.602496 -10.414588 -0.781440 72.036464 -22.982987 24.610489 179.820145 73.178346 179.979534 -0.010876 11.759640 0.011757 -0.110888 -0.555084 -0.000000 0.000000 0.000000 0.000000 0.000000 0.000000 0.000000 
-11.548035 17.902793 -0.946919 12.277532 89.835848 40.059702 4.056987 -3.414014 -3.180779 0.849464 -3.739367 -3.783430 -4.536886 -3.728547 -1.083055 6.643427 -14.632683 -7.766389 -2.747386 -0.212912 -0.028222 0.000000 0.000000 0.000000 6.874304 5.392274 -0.799480 -78.563918 -1.875107 28.420179 -178.651764 -65.151599 179.966577 4.345951 -6.037669 -0.263959 -0.155882 0.810193 -0.000000 0.000000 0.000000 0.000000 0.000000 0.000000 0.000000 3.589876 -10.262319 -0.769442 72.478301 -22.924681 24.285695 179.811667 73.130716 179.979845 0.062718 11.805771 0.019968 -0.112466 -0.558668 -0.000000 0.000000 0.000000 0.000000 0.000000 0.000000 0.000000 
